<mxfile host="app.diagrams.net" agent="Mozilla/5.0 (Windows NT 10.0; Win64; x64; rv:139.0) Gecko/20100101 Firefox/139.0" version="27.1.6">
  <diagram name="Page-1" id="YNH3-isbx7ssDm_zUuXM">
    <mxGraphModel dx="1306" dy="736" grid="1" gridSize="10" guides="1" tooltips="1" connect="1" arrows="1" fold="1" page="1" pageScale="1" pageWidth="850" pageHeight="1100" background="none" math="0" shadow="0">
      <root>
        <mxCell id="0" />
        <mxCell id="1" parent="0" />
        <mxCell id="gl2Lm_Q9qtBqjQSu7fJN-1" value="Posjetitelj kina" style="ellipse;whiteSpace=wrap;html=1;" vertex="1" parent="1">
          <mxGeometry x="340" y="350" width="120" height="80" as="geometry" />
        </mxCell>
        <mxCell id="gl2Lm_Q9qtBqjQSu7fJN-2" value="" style="endArrow=none;html=1;rounded=0;" edge="1" parent="1">
          <mxGeometry width="50" height="50" relative="1" as="geometry">
            <mxPoint x="399.5" y="350" as="sourcePoint" />
            <mxPoint x="399.5" y="160" as="targetPoint" />
          </mxGeometry>
        </mxCell>
        <mxCell id="gl2Lm_Q9qtBqjQSu7fJN-3" value="" style="endArrow=classic;html=1;rounded=0;" edge="1" parent="1" target="gl2Lm_Q9qtBqjQSu7fJN-4">
          <mxGeometry width="50" height="50" relative="1" as="geometry">
            <mxPoint x="400" y="160" as="sourcePoint" />
            <mxPoint x="270" y="160" as="targetPoint" />
          </mxGeometry>
        </mxCell>
        <mxCell id="gl2Lm_Q9qtBqjQSu7fJN-4" value="P1" style="swimlane;whiteSpace=wrap;html=1;rounded=1;" vertex="1" parent="1">
          <mxGeometry x="100" y="120" width="185" height="80" as="geometry" />
        </mxCell>
        <mxCell id="gl2Lm_Q9qtBqjQSu7fJN-8" value="&lt;div&gt;Pretraga filmova, kino dvorana,&lt;/div&gt;&lt;div&gt;&amp;nbsp;slobodnih mjesta&lt;/div&gt;" style="text;html=1;align=center;verticalAlign=middle;resizable=0;points=[];autosize=1;strokeColor=none;fillColor=none;" vertex="1" parent="gl2Lm_Q9qtBqjQSu7fJN-4">
          <mxGeometry x="-5" y="30" width="190" height="40" as="geometry" />
        </mxCell>
        <mxCell id="gl2Lm_Q9qtBqjQSu7fJN-9" value="" style="endArrow=none;html=1;rounded=0;exitX=0.5;exitY=0;exitDx=0;exitDy=0;" edge="1" parent="1" source="gl2Lm_Q9qtBqjQSu7fJN-12">
          <mxGeometry width="50" height="50" relative="1" as="geometry">
            <mxPoint x="190" y="280" as="sourcePoint" />
            <mxPoint x="190" y="200" as="targetPoint" />
          </mxGeometry>
        </mxCell>
        <mxCell id="gl2Lm_Q9qtBqjQSu7fJN-12" value="Detaljnije informacije" style="text;html=1;align=center;verticalAlign=middle;whiteSpace=wrap;rounded=0;" vertex="1" parent="1">
          <mxGeometry x="130" y="260" width="120" height="30" as="geometry" />
        </mxCell>
        <mxCell id="gl2Lm_Q9qtBqjQSu7fJN-14" value="P2" style="swimlane;whiteSpace=wrap;html=1;rounded=1;startSize=23;" vertex="1" parent="1">
          <mxGeometry x="85" y="350" width="210" height="80" as="geometry" />
        </mxCell>
        <mxCell id="gl2Lm_Q9qtBqjQSu7fJN-15" value="Odabir filma, kino dvorane i sjedišta" style="text;html=1;align=center;verticalAlign=middle;whiteSpace=wrap;rounded=0;" vertex="1" parent="gl2Lm_Q9qtBqjQSu7fJN-14">
          <mxGeometry x="5" y="30" width="200" height="30" as="geometry" />
        </mxCell>
        <mxCell id="gl2Lm_Q9qtBqjQSu7fJN-16" value="" style="endArrow=none;html=1;rounded=0;exitX=0.5;exitY=0;exitDx=0;exitDy=0;" edge="1" parent="1" source="gl2Lm_Q9qtBqjQSu7fJN-18">
          <mxGeometry width="50" height="50" relative="1" as="geometry">
            <mxPoint x="190" y="470" as="sourcePoint" />
            <mxPoint x="190" y="430" as="targetPoint" />
          </mxGeometry>
        </mxCell>
        <mxCell id="gl2Lm_Q9qtBqjQSu7fJN-18" value="Informacije o filmu, kino dvorani, sjedištu i terminu" style="text;html=1;align=center;verticalAlign=middle;whiteSpace=wrap;rounded=0;" vertex="1" parent="1">
          <mxGeometry x="90" y="500" width="200" height="30" as="geometry" />
        </mxCell>
        <mxCell id="gl2Lm_Q9qtBqjQSu7fJN-23" value="" style="endArrow=classic;html=1;rounded=0;entryX=0.5;entryY=0;entryDx=0;entryDy=0;" edge="1" parent="1" target="gl2Lm_Q9qtBqjQSu7fJN-14">
          <mxGeometry width="50" height="50" relative="1" as="geometry">
            <mxPoint x="190" y="290" as="sourcePoint" />
            <mxPoint x="240" y="240" as="targetPoint" />
          </mxGeometry>
        </mxCell>
        <mxCell id="gl2Lm_Q9qtBqjQSu7fJN-24" value="" style="endArrow=none;html=1;rounded=0;entryX=0.5;entryY=1;entryDx=0;entryDy=0;" edge="1" parent="1" target="gl2Lm_Q9qtBqjQSu7fJN-18">
          <mxGeometry width="50" height="50" relative="1" as="geometry">
            <mxPoint x="190" y="640" as="sourcePoint" />
            <mxPoint x="190" y="540" as="targetPoint" />
          </mxGeometry>
        </mxCell>
        <mxCell id="gl2Lm_Q9qtBqjQSu7fJN-27" value="" style="endArrow=classic;html=1;rounded=0;" edge="1" parent="1">
          <mxGeometry width="50" height="50" relative="1" as="geometry">
            <mxPoint x="190" y="640" as="sourcePoint" />
            <mxPoint x="339.9999999999998" y="640" as="targetPoint" />
          </mxGeometry>
        </mxCell>
        <mxCell id="gl2Lm_Q9qtBqjQSu7fJN-28" value="P2.1" style="swimlane;whiteSpace=wrap;html=1;rounded=1;" vertex="1" parent="1">
          <mxGeometry x="340" y="610" width="120" height="60" as="geometry" />
        </mxCell>
        <mxCell id="gl2Lm_Q9qtBqjQSu7fJN-29" value="Kupovina karte" style="text;html=1;align=center;verticalAlign=middle;resizable=0;points=[];autosize=1;strokeColor=none;fillColor=none;" vertex="1" parent="gl2Lm_Q9qtBqjQSu7fJN-28">
          <mxGeometry x="10" y="20" width="100" height="30" as="geometry" />
        </mxCell>
        <mxCell id="gl2Lm_Q9qtBqjQSu7fJN-30" value="" style="endArrow=none;html=1;rounded=0;entryX=0.5;entryY=1;entryDx=0;entryDy=0;exitX=0.5;exitY=0;exitDx=0;exitDy=0;" edge="1" parent="1" source="gl2Lm_Q9qtBqjQSu7fJN-31" target="gl2Lm_Q9qtBqjQSu7fJN-1">
          <mxGeometry width="50" height="50" relative="1" as="geometry">
            <mxPoint x="400" y="480" as="sourcePoint" />
            <mxPoint x="450" y="450" as="targetPoint" />
          </mxGeometry>
        </mxCell>
        <mxCell id="gl2Lm_Q9qtBqjQSu7fJN-31" value="Potvrda kupovine" style="text;html=1;align=center;verticalAlign=middle;whiteSpace=wrap;rounded=0;" vertex="1" parent="1">
          <mxGeometry x="345" y="500" width="110" height="30" as="geometry" />
        </mxCell>
        <mxCell id="gl2Lm_Q9qtBqjQSu7fJN-33" value="" style="endArrow=classic;html=1;rounded=0;entryX=0;entryY=0.5;entryDx=0;entryDy=0;" edge="1" parent="1" target="gl2Lm_Q9qtBqjQSu7fJN-34">
          <mxGeometry width="50" height="50" relative="1" as="geometry">
            <mxPoint x="460" y="639.29" as="sourcePoint" />
            <mxPoint x="589.9999999999998" y="639.29" as="targetPoint" />
            <Array as="points">
              <mxPoint x="520" y="639.29" />
            </Array>
          </mxGeometry>
        </mxCell>
        <mxCell id="gl2Lm_Q9qtBqjQSu7fJN-34" value="P2.2" style="swimlane;whiteSpace=wrap;html=1;rounded=1;" vertex="1" parent="1">
          <mxGeometry x="580" y="610" width="130" height="60" as="geometry" />
        </mxCell>
        <mxCell id="gl2Lm_Q9qtBqjQSu7fJN-35" value="Prikaz odabranog" style="text;html=1;align=center;verticalAlign=middle;resizable=0;points=[];autosize=1;strokeColor=none;fillColor=none;" vertex="1" parent="gl2Lm_Q9qtBqjQSu7fJN-34">
          <mxGeometry x="5" y="20" width="120" height="30" as="geometry" />
        </mxCell>
        <mxCell id="gl2Lm_Q9qtBqjQSu7fJN-38" value="" style="endArrow=none;html=1;rounded=0;entryX=0.5;entryY=0;entryDx=0;entryDy=0;" edge="1" parent="1" target="gl2Lm_Q9qtBqjQSu7fJN-28">
          <mxGeometry width="50" height="50" relative="1" as="geometry">
            <mxPoint x="400" y="530" as="sourcePoint" />
            <mxPoint x="450" y="480" as="targetPoint" />
          </mxGeometry>
        </mxCell>
        <mxCell id="gl2Lm_Q9qtBqjQSu7fJN-39" value="Pristup sustavu" style="text;html=1;align=center;verticalAlign=middle;whiteSpace=wrap;rounded=0;" vertex="1" parent="1">
          <mxGeometry x="295" y="120" width="90" height="30" as="geometry" />
        </mxCell>
      </root>
    </mxGraphModel>
  </diagram>
</mxfile>
